#!OML:ASF E:\motion texture\Top Level 1\Subject 1\Session 1\male.ASF
:FULLY-SPECIFIED
:DEGREES
285
root -8.94308 17.8165 4.45797 558.533 -84.8605 -562.439
lowerback 4.03952 -2.45426 -3.08015
upperback -0.347214 -3.41719 0.281459
thorax -2.4228 -1.66245 2.21525
lowerneck -16.8646 -2.29927 -4.82662
upperneck 13.3712 -3.33375 7.74201
head 7.07885 -1.1758 2.94964
rclavicle -2.24875e-015 6.95746e-015
rhumerus -44.078 0.228988 -80.6239
rradius 55.6247
rwrist -1.43842
rhand -11.1576 -9.57276
rfingers 7.12502
rthumb 14.8687 -39.0192
lclavicle -2.24875e-015 6.95746e-015
lhumerus -22.0904 -4.59158 92.1755
lradius 62.9268
lwrist 2.29799
lhand -15.1802 3.25819
lfingers 7.12502
lthumb 10.991 32.9505
rfemur -49.4116 -6.57028 15.4053
rtibia 75.6781
rfoot 193.759 4.37162
rtoes 28.5824
lfemur -8.28379 -1.10088 -25.6031
ltibia 25.719
lfoot 530.164 178.421
ltoes 7.70079
286
root -9.04342 17.8475 4.45036 564.013 -85.1631 -568.259
lowerback 4.57158 -2.77373 -3.6425
upperback -0.267592 -3.89149 0.286837
thorax -2.5738 -1.88957 2.58655
lowerneck -16.9425 -2.1346 -4.73992
upperneck 13.4762 -3.09625 7.53976
head 7.10493 -1.07174 2.89639
rclavicle -3.85145e-016 -2.78299e-015
rhumerus -45.137 -0.277686 -79.6973
rradius 54.9061
rwrist -1.53104
rhand -11.052 -9.56646
rfingers 7.12502
rthumb 14.9704 -39.0054
lclavicle -3.85145e-016 -2.78299e-015
lhumerus -20.4451 -4.93921 91.9564
lradius 63.5
lwrist 2.0963
lhand -14.8649 3.38587
lfingers 7.12502
lthumb 11.2951 33.0617
rfemur -52.6367 -7.12918 15.3823
rtibia 74.3519
rfoot 194.936 4.19967
rtoes 29.8404
lfemur -7.10066 -1.52209 -26.1193
ltibia 24.8885
lfoot 530.154 178.399
ltoes 7.75806
287
root -9.14679 17.8759 4.4387 569.272 -85.5175 -573.856
lowerback 5.09263 -3.09327 -4.13578
upperback -0.194211 -4.36635 0.338053
thorax -2.71691 -2.11708 2.97093
lowerneck -17.001 -1.98204 -4.64899
upperneck 13.5715 -2.8754 7.33228
head 7.12625 -0.976688 2.83878
rclavicle -8.07563e-015 2.38542e-015
rhumerus -46.2546 -0.648801 -78.7804
rradius 54.3664
rwrist -1.88047
rhand -10.8849 -9.63613
rfingers 7.12502
rthumb 15.1313 -39.063
lclavicle -8.07563e-015 2.38542e-015
lhumerus -18.8925 -5.277 91.7098
lradius 64.06
lwrist 1.89097
lhand -14.5465 3.45501
lfingers 7.12502
lthumb 11.6021 33.1138
rfemur -55.7469 -7.66499 15.5129
rtibia 73.3184
rfoot 196.245 4.13624
rtoes 31.0805
lfemur -5.91951 -1.90374 -26.4663
ltibia 24.0801
lfoot 530.157 178.261
ltoes 7.81926
288
root -9.25376 17.9023 4.4247 574.173 -85.8952 -579.087
lowerback 5.58575 -3.40098 -4.52856
upperback -0.128519 -4.82178 0.423379
thorax -2.84989 -2.33569 3.33643
lowerneck -17.0493 -1.83901 -4.56554
upperneck 13.6744 -2.67001 7.14309
head 7.15043 -0.88829 2.78679
rclavicle -2.19781e-014 2.78299e-015
rhumerus -47.4277 -0.891979 -77.8889
rradius 53.9876
rwrist -2.35819
rhand -10.6987 -9.70431
rfingers 7.12502
rthumb 15.3107 -39.1176
lclavicle -2.19781e-014 2.78299e-015
lhumerus -17.4272 -5.62139 91.4296
lradius 64.6015
lwrist 1.76125
lhand -14.2245 3.47569
lfingers 7.12502
lthumb 11.9126 33.1168
rfemur -58.7411 -8.12676 15.7738
rtibia 72.5664
rfoot 197.654 4.18395
rtoes 32.1698
lfemur -4.73559 -2.23961 -26.6584
ltibia 23.2789
lfoot 530.163 178.066
ltoes 7.84522
289
root -9.36459 17.9267 4.41011 578.835 -86.2691 -584.045
lowerback 6.02082 -3.69059 -4.81515
upperback -0.0802142 -5.24608 0.524259
thorax -2.97131 -2.53978 3.65764
lowerneck -17.0634 -1.70736 -4.49136
upperneck 13.768 -2.48261 6.97566
head 7.16791 -0.808118 2.74137
rclavicle 2.52457e-014 -1.03368e-014
rhumerus -48.6458 -1.02754 -77.031
rradius 53.7402
rwrist -2.81951
rhand -10.4874 -9.7259
rfingers 7.12502
rthumb 15.5143 -39.1235
lclavicle 2.52457e-014 -1.03368e-014
lhumerus -16.0535 -5.99139 91.1079
lradius 65.1316
lwrist 1.76316
lhand -13.8941 3.4661
lfingers 7.12502
lthumb 12.2312 33.0885
rfemur -61.6428 -8.49623 16.1191
rtibia 72.0779
rfoot 199.124 4.34525
rtoes 33.0777
lfemur -3.57907 -2.54803 -26.7481
ltibia 22.4923
lfoot 530.157 177.875
ltoes 7.77149
290
root -9.47911 17.9497 4.39604 583.456 -86.6051 -588.913
lowerback 6.38076 -3.95571 -5.0156
upperback -0.0555697 -5.63 0.622894
thorax -3.08163 -2.72453 3.92456
lowerneck -17.0442 -1.58714 -4.43663
upperneck 13.856 -2.31393 6.84599
head 7.18024 -0.735535 2.70939
rclavicle 1.63997e-015 5.96354e-015
rhumerus -49.8954 -1.08098 -76.2081
rradius 53.592
rwrist -3.13674
rhand -10.2939 -9.6483
rfingers 7.12502
rthumb 15.7007 -39.0313
lclavicle 1.63997e-015 5.96354e-015
lhumerus -14.7646 -6.40021 90.7422
lradius 65.6472
lwrist 1.9327
lhand -13.5499 3.41761
lfingers 7.12502
lthumb 12.563 33.0199
rfemur -64.4683 -8.76495 16.4977
rtibia 71.8267
rfoot 200.622 4.6128
rtoes 33.7917
lfemur -2.47457 -2.84738 -26.7997
ltibia 21.7308
lfoot 530.136 177.736
ltoes 7.63735
291
root -9.59697 17.9715 4.38312 587.869 -86.8807 -593.517
lowerback 6.65033 -4.19169 -5.14449
upperback -0.0493249 -5.96637 0.711389
thorax -3.16956 -2.8868 4.13372
lowerneck -17.0064 -1.47683 -4.39298
upperneck 13.9423 -2.1612 6.74076
head 7.1906 -0.669528 2.68542
rclavicle 4.18814e-014 4.37326e-015
rhumerus -51.1386 -1.074 -75.4203
rradius 53.4985
rwrist -3.24852
rhand -10.1246 -9.44076
rfingers 7.12502
rthumb 15.8636 -38.8109
lclavicle 4.18814e-014 4.37326e-015
lhumerus -13.5459 -6.84628 90.3301
lradius 66.1482
lwrist 2.25682
lhand -13.1992 3.35723
lfingers 7.12502
lthumb 12.9012 32.9385
rfemur -67.22 -8.92421 16.8865
rtibia 71.7853
rfoot 202.131 4.96203
rtoes 34.3669
lfemur -1.45182 -3.13831 -26.8458
ltibia 21.0281
lfoot 530.085 177.669
ltoes 7.49022
292
root -9.71733 17.992 4.37154 592.089 -87.0939 -597.858
lowerback 6.82599 -4.4017 -5.22037
upperback -0.0658375 -6.25992 0.787081
thorax -3.23759 -3.02861 4.29154
lowerneck -16.969 -1.37384 -4.34914
upperneck 14.039 -2.02028 6.64212
head 7.20544 -0.608641 2.66234
rclavicle -7.06183e-014 1.19271e-015
rhumerus -52.3576 -1.01876 -74.6669
rradius 53.4372
rwrist -3.16065
rhand -9.93801 -9.13375
rfingers 7.12502
rthumb 16.0433 -38.4895
lclavicle -7.06183e-014 1.19271e-015
lhumerus -12.388 -7.31587 89.8768
lradius 66.6217
lwrist 2.67023
lhand -12.8429 3.28335
lfingers 7.12502
lthumb 13.2446 32.8426
rfemur -69.9071 -8.99233 17.2714
rtibia 71.9238
rfoot 203.638 5.3678
rtoes 34.87
lfemur -0.528798 -3.45519 -26.9213
ltibia 20.3894
lfoot 530.003 177.701
ltoes 7.31995
293
root -9.83992 18.0112 4.36116 595.785 -87.2554 -601.626
lowerback 6.93064 -4.58606 -5.24675
upperback -0.0993741 -6.51205 0.852691
thorax -3.29319 -3.15057 4.40375
lowerneck -16.933 -1.27773 -4.30626
upperneck 14.1382 -1.88959 6.54916
head 7.22228 -0.552252 2.64016
rclavicle -5.14355e-015 -7.15625e-015
rhumerus -53.5413 -0.918701 -73.953
rradius 53.4009
rwrist -2.95395
rhand -9.73119 -8.82555
rfingers 7.12502
rthumb 16.2425 -38.1652
lclavicle -5.14355e-015 -7.15625e-015
lhumerus -11.2847 -7.78514 89.3927
lradius 67.057
lwrist 3.06776
lhand -12.4903 3.20783
lfingers 7.12502
lthumb 13.5844 32.7446
rfemur -72.4931 -8.9744 17.6547
rtibia 72.2225
rfoot 205.12 5.78579
rtoes 35.3937
lfemur 0.30786 -3.79882 -27.0255
ltibia 19.8254
lfoot 529.878 177.831
ltoes 7.12382
294
root -9.96383 18.029 4.35169 598.511 -87.4061 -604.391
lowerback 6.9932 -4.75088 -5.20622
upperback -0.138314 -6.73029 0.921406
thorax -3.34097 -3.25686 4.4766
lowerneck -16.9548 -1.18344 -4.23013
upperneck 14.2758 -1.76251 6.41856
head 7.26134 -0.497991 2.60023
rclavicle -1.07095e-014 1.23246e-014
rhumerus -54.667 -0.771301 -73.2827
rradius 53.3873
rwrist -2.7343
rhand -9.47984 -8.55537
rfingers 7.12502
rthumb 16.4845 -37.8751
lclavicle -1.07095e-014 1.23246e-014
lhumerus -10.2171 -8.22524 88.8889
lradius 67.4304
lwrist 3.34755
lhand -12.1704 3.14014
lfingers 7.12502
lthumb 13.8927 32.6561
rfemur -74.9388 -8.87987 18.0694
rtibia 72.6634
rfoot 206.567 6.17162
rtoes 35.9993
lfemur 1.07969 -4.17902 -27.121
ltibia 19.3305
lfoot 529.719 178.051
ltoes 6.92151
